<svg width="250" height="250" viewBox="0 0 250 250" fill="none" xmlns="http://www.w3.org/2000/svg">
<circle cx="125" cy="125" r="125" fill="black"/>
<path d="M108.966 109.055L139.663 100.273C144.041 99.0367 148.6 101.561 149.862 105.939C151.098 110.317 148.574 114.875 144.196 116.137L108.966 126.206V165.892H166.652C171.211 165.892 174.893 169.574 174.893 174.132C174.893 178.691 171.211 182.373 166.652 182.373H100.725C96.1742 182.373 92.4838 178.691 92.4838 174.132V130.893L86.5066 132.619C82.1311 133.855 77.5695 131.331 76.3192 126.953C75.0689 122.575 77.6027 118.017 81.9792 116.755L92.4838 113.767V75.241C92.4838 70.6904 96.1742 67 100.725 67C105.283 67 108.966 70.6904 108.966 75.241V109.055Z" fill="#F4F4F4"/>
</svg>
