<svg width="250" height="250" viewBox="0 0 250 250" fill="none" xmlns="http://www.w3.org/2000/svg">
<circle cx="125" cy="125" r="125" fill="black"/>
<path d="M90.3855 81.4217C90.3855 89.3794 83.9215 95.8434 75.9638 95.8434C67.9984 95.8434 61.5422 89.3794 61.5422 81.4217C61.5422 73.4563 67.9984 67 75.9638 67C83.9215 67 90.3855 73.4563 90.3855 81.4217ZM96.6692 109.312C89.0206 116.111 84.2048 126.026 84.2048 137.048C84.2048 145.881 87.0634 153.994 92.4458 160.355V165.892C92.4458 170.45 88.7631 174.132 84.2048 174.132H67.7229C63.1723 174.132 59.4819 170.45 59.4819 165.892V158.99C49.737 154.354 43 144.439 43 132.928C43 116.987 55.9126 104.084 71.8434 104.084H80.0843C86.0333 104.084 91.9822 106.016 96.6692 109.312ZM59.4819 122.034C56.9169 124.918 55.3614 128.756 55.3614 132.928C55.3614 137.1 56.9169 140.937 59.4819 143.821V122.034ZM158.373 165.892V160.355C163.524 153.994 166.614 145.881 166.614 137.048C166.614 126.026 161.799 116.111 154.15 109.312C158.837 106.016 164.554 104.084 170.735 104.084H178.976C194.917 104.084 207.819 116.987 207.819 132.928C207.819 144.439 201.072 154.354 191.337 158.99V165.892C191.337 170.45 187.655 174.132 183.096 174.132H166.614C162.056 174.132 158.373 170.45 158.373 165.892ZM191.337 143.821C193.681 140.937 195.458 137.1 195.458 132.928C195.458 128.756 193.681 124.918 191.337 122.034V143.821ZM189.277 81.4217C189.277 89.3794 182.813 95.8434 174.855 95.8434C166.898 95.8434 160.434 89.3794 160.434 81.4217C160.434 73.4563 166.898 67 174.855 67C182.813 67 189.277 73.4563 189.277 81.4217ZM108.928 83.4819C108.928 74.3782 116.319 67 125.41 67C134.5 67 141.892 74.3782 141.892 83.4819C141.892 92.5727 134.5 99.9638 125.41 99.9638C116.319 99.9638 108.928 92.5727 108.928 83.4819ZM158.373 137.048C158.373 148.56 151.626 158.475 141.892 163.11V174.132C141.892 178.691 138.209 182.373 133.651 182.373H117.169C112.61 182.373 108.928 178.691 108.928 174.132V163.11C99.193 158.475 92.4458 148.56 92.4458 137.048C92.4458 121.107 105.348 108.205 121.289 108.205H129.53C145.471 108.205 158.373 121.107 158.373 137.048ZM108.928 147.942V126.155C106.352 129.039 104.807 132.876 104.807 137.048C104.807 141.22 106.352 145.057 108.928 147.942ZM141.892 126.155V147.942C144.235 145.032 146.012 141.22 146.012 137.048C146.012 132.876 144.235 129.039 141.892 126.155Z" fill="#F4F4F4"/>
</svg>
