<svg width="250" height="250" viewBox="0 0 250 250" fill="none" xmlns="http://www.w3.org/2000/svg">
<circle cx="125" cy="125" r="125" fill="black"/>
<path d="M188.474 127.014L167.776 106.316L180.104 93.9854C183.452 90.6067 183.452 85.1341 180.104 81.7528L167.871 69.5201C164.493 66.1413 159.018 66.1413 155.639 69.5201L143.308 81.8506L122.623 61.3822C121.053 59.8692 118.967 59 116.803 59C114.614 59 112.523 59.8692 111.009 61.3822L86.0928 86.2982C82.9046 89.5173 82.9046 94.6988 86.0928 97.9179L106.76 118.618L104.262 121.168C90.355 114.858 74.3108 115.373 60.8678 122.552C58.6793 123.743 58.3896 126.77 60.1279 128.54L87.8381 156.224L83.2335 160.795C82.5575 160.602 81.9458 160.377 81.2376 160.377C76.6665 160.377 72.9967 164.08 72.9967 168.618C72.9967 173.189 76.6665 176.859 81.2376 176.859C85.7753 176.859 89.4786 173.189 89.4786 168.618C89.4786 167.909 89.2532 167.298 89.0601 166.622L93.6313 162.017L121.341 189.727C123.08 191.466 126.137 191.176 127.296 188.987C134.476 175.531 134.991 159.5 128.68 145.593L131.255 143.051L151.922 163.746C155.141 166.934 160.323 166.934 163.279 163.746L188.195 138.83C189.968 137.315 190.843 134.997 190.843 133.04C190.843 130.877 189.968 128.559 188.474 127.014ZM115.516 109.836L97.7718 92.0926L116.796 73.0998L134.529 90.8384L115.516 109.836ZM157.751 152.071L140.007 134.328L159 115.301L176.738 133.037L157.751 152.071Z" fill="#F4F4F4"/>
</svg>
