<svg width="250" height="250" viewBox="0 0 250 250" fill="none" xmlns="http://www.w3.org/2000/svg">
<circle cx="125" cy="125" r="125" fill="black"/>
<path d="M190.855 79.6024C190.855 84.2405 187.173 88.5129 180.966 91.9638C173.472 96.1101 162.321 99.0459 149.47 99.9215C148.543 99.4837 147.565 99.0459 146.586 98.6339C136.414 94.3846 122.919 91.9638 108.446 91.9638C106.308 91.9638 104.222 92.0153 102.136 92.1184L101.853 91.9638C95.6465 88.5129 91.9638 84.2405 91.9638 79.6024C91.9638 68.2247 113.88 59 141.41 59C168.708 59 190.855 68.2247 190.855 79.6024ZM100.385 100.488C103.012 100.308 105.69 100.205 108.446 100.205C124.464 100.205 138.68 103.372 147.719 108.291C154.106 111.768 157.892 116.094 157.892 120.807C157.892 121.606 157.711 122.842 157.351 123.82C156.166 127.22 152.767 130.336 148.337 132.988C148.311 132.988 148.26 133.014 148.234 133.04C148.157 133.091 148.08 133.117 148.002 133.169C138.989 138.165 124.619 141.41 108.446 141.41C93.097 141.41 79.3603 138.5 70.2901 133.915C69.8085 133.658 69.3398 133.194 68.8866 133.169C62.6775 129.718 59 125.443 59 120.807C59 111.845 72.7598 104.197 91.9638 101.389C94.6679 100.977 97.475 100.668 100.385 100.488ZM159.926 107.055C167.214 105.922 173.884 104.119 179.55 101.776C183.748 100.025 187.636 97.8613 190.855 95.2087V104.325C190.855 109.296 186.606 113.88 179.576 117.434C175.79 119.339 171.232 120.936 166.081 122.172C166.107 121.734 166.132 121.271 166.132 120.807C166.132 115.167 163.403 110.532 159.926 107.055ZM157.892 145.53C157.892 150.166 154.209 154.441 148.002 157.892C147.539 157.917 147.075 158.381 146.612 158.638C137.521 163.222 123.795 166.132 108.446 166.132C92.2729 166.132 77.9079 162.888 68.8866 157.892C62.6775 154.441 59.0001 150.166 59.0001 145.53V136.414C62.2062 139.066 66.113 141.229 70.3133 142.981C80.4883 147.23 93.9726 149.651 108.446 149.651C122.919 149.651 136.414 147.23 146.586 142.981C148.595 142.156 150.526 141.204 152.355 140.173C153.926 139.298 155.393 138.319 156.784 137.289C157.17 137.006 157.531 136.697 157.892 136.414V145.53ZM166.132 130.619C170.794 129.331 175.532 128.173 179.55 126.499C183.748 124.747 187.636 122.584 190.855 119.932V129.048C190.855 131.752 189.568 134.456 187.018 137.006C182.82 141.204 175.429 144.654 166.081 146.895C166.107 146.457 166.132 145.994 166.132 145.53V130.619ZM108.446 174.373C122.919 174.373 136.414 171.953 146.586 167.703C150.784 165.952 154.672 163.789 157.892 161.136V170.253C157.892 181.636 135.744 190.855 108.446 190.855C81.1373 190.855 59.0001 181.636 59.0001 170.253V161.136C62.2062 163.789 66.113 165.952 70.3133 167.703C80.4883 171.953 93.9726 174.373 108.446 174.373Z" fill="#F4F4F4"/>
</svg>
