<svg width="250" height="250" viewBox="0 0 250 250" fill="none" xmlns="http://www.w3.org/2000/svg">
<circle cx="125" cy="125" r="125" fill="black"/>
<path d="M186.976 59H63.3614C56.5369 59 51 64.5369 51 71.3614V153.771C51 160.596 56.5369 166.132 63.3614 166.132H112.807L108.687 178.494H90.1446C86.7452 178.494 83.9638 181.275 83.9638 184.675C83.9638 188.074 86.7452 190.855 90.1446 190.855H160.193C163.605 190.855 166.373 188.087 166.373 184.675C166.373 181.262 163.605 178.494 160.193 178.494H141.651L137.53 166.132H186.976C193.8 166.132 199.337 160.596 199.337 153.771V71.3614C199.337 64.5369 193.8 59 186.976 59ZM182.855 133.169H67.4819V75.4819H182.855V133.169Z" fill="#F4F4F4"/>
</svg>
