<svg width="250" height="250" viewBox="0 0 250 250" fill="none" xmlns="http://www.w3.org/2000/svg">
<circle cx="125" cy="125" r="125" fill="black"/>
<path d="M188.735 124.867C188.735 160.141 160.141 188.735 124.867 188.735C89.5943 188.735 61 160.141 61 124.867C61 89.5943 89.5943 61 124.867 61C160.141 61 188.735 89.5943 188.735 124.867ZM152.255 115.769C153.527 107.271 147.056 102.702 138.207 99.6545L141.078 88.1424L134.069 86.3961L131.275 97.6048C129.433 97.1456 127.54 96.7127 125.66 96.2837L128.475 85.0013L121.47 83.255L118.598 94.763C117.073 94.4155 115.576 94.0723 114.123 93.7112L114.131 93.6751L104.466 91.2621L102.602 98.7464C102.602 98.7464 107.801 99.938 107.692 100.012C110.53 100.72 111.043 102.598 110.957 104.087L107.688 117.202C107.883 117.252 108.137 117.324 108.416 117.435C108.183 117.377 107.933 117.314 107.676 117.252L103.093 135.623C102.745 136.486 101.865 137.779 99.8808 137.288C99.9506 137.39 94.7869 136.017 94.7869 136.017L91.3077 144.038L100.428 146.311C102.124 146.736 103.787 147.181 105.424 147.6L102.524 159.244L109.524 160.99L112.396 149.47C114.252 149.973 116.114 150.456 117.981 150.919L115.119 162.385L122.127 164.132L125.027 152.51C136.978 154.771 145.964 153.859 149.746 143.052C152.794 134.35 149.595 129.33 143.307 126.057C147.886 125.002 151.335 121.99 152.255 115.769V115.769ZM136.243 138.22C134.077 146.922 119.424 142.218 114.674 141.038L118.522 125.612C123.273 126.798 138.506 129.145 136.243 138.22ZM138.411 115.643C136.435 123.559 124.239 119.537 120.282 118.551L123.771 104.56C127.728 105.546 140.469 107.386 138.411 115.643Z" fill="#F4F4F4"/>
</svg>
