<svg width="250" height="250" viewBox="0 0 250 250" fill="none" xmlns="http://www.w3.org/2000/svg">
<circle cx="125" cy="125" r="125" fill="black"/>
<path d="M115.039 83.7486C111.704 83.5877 108.688 86.1066 108.466 89.5096C108.24 92.9167 110.815 95.8525 114.214 95.8525C134.696 97.1886 152.432 114.933 153.771 135.409C153.984 138.677 156.704 141.186 159.936 141.186C160.069 141.186 160.206 141.177 160.343 141.169C163.747 140.952 166.33 138.007 166.109 134.602C164.407 108.394 141.487 85.4741 115.039 83.7486ZM116.687 59C112.128 59 108.446 62.6853 108.446 67.241C108.446 71.7967 112.136 75.4819 116.687 75.4819C148.492 75.4819 174.373 101.364 174.373 133.169C174.373 137.724 178.064 141.41 182.614 141.41C187.165 141.41 190.855 137.724 190.855 133.169C190.855 92.2729 157.582 59 116.687 59ZM103.372 117.408C99.6125 116.661 96.0843 119.726 96.0843 123.537V136.509C96.0843 139.148 97.9197 141.24 100.398 141.943C105.067 143.681 108.448 148.221 108.448 153.3C108.448 160.124 102.911 165.429 96.0843 165.429C89.2598 165.429 83.7203 159.893 83.7203 153.3V89.9036C83.7203 86.4913 80.9519 83.9547 77.537 83.9547L65.173 83.9566C61.7684 83.728 59 86.5042 59 89.9036V153.539C59 176.588 80.1535 194.796 104.068 189.774C118.072 186.812 129.375 175.481 132.345 161.523C136.826 140.405 122.816 121.271 103.372 117.408Z" fill="#F4F4F4"/>
</svg>
