<svg width="250" height="250" viewBox="0 0 250 250" fill="none" xmlns="http://www.w3.org/2000/svg">
<circle cx="125" cy="125" r="125" fill="black"/>
<path d="M125.086 59C129.645 59 133.327 62.6904 133.327 67.241V76.4296C133.739 76.4837 134.126 76.5429 134.538 76.6022C137.268 77.0091 145.405 78.3199 148.753 79.1672C152.925 80.2849 155.835 84.7787 154.702 89.1825C153.595 93.5863 149.114 96.2646 144.684 95.1572C142.289 94.3074 135.001 93.3287 132.117 92.9167C123.85 91.6806 116.768 92.2986 111.901 94.1528C107.193 95.9556 105.239 98.5051 104.721 101.364C104.221 104.119 104.6 105.69 105.053 106.669C105.54 107.699 106.49 108.858 108.383 110.12C112.57 112.875 118.957 114.729 127.25 116.97L127.971 117.176C135.285 119.159 144.247 121.606 150.891 126.009C154.522 128.43 157.947 131.701 160.059 136.233C162.196 140.817 162.66 145.968 161.681 151.221C159.879 161.239 152.925 167.781 144.762 171.18C141.259 172.622 137.396 173.549 133.327 174.013V182.614C133.327 187.173 129.645 190.855 125.086 190.855C120.528 190.855 116.845 187.173 116.845 182.614V173.627C116.742 173.627 116.614 173.369 116.511 173.575H116.459C110.201 172.596 99.8665 169.892 92.8951 166.802C88.736 164.948 86.8638 160.081 88.7128 155.909C90.5619 151.762 95.4318 149.882 99.3591 151.737C104.973 154.132 113.832 156.475 118.957 157.273C127.198 158.51 133.971 157.788 138.555 155.934C142.907 154.157 144.89 151.582 145.457 148.492C145.946 145.736 145.586 144.165 145.122 143.187C144.633 142.156 143.68 140.998 141.8 139.736C137.602 136.98 131.216 135.126 122.923 132.885L122.202 132.679C114.888 130.696 105.921 128.25 99.2716 123.846C95.6378 121.425 92.2333 118.155 90.1189 113.622C87.9737 109.038 87.5076 103.887 88.5042 98.4021C90.3275 88.3842 97.5435 81.9949 106.019 78.7603C109.372 77.4804 113.008 76.6382 116.845 76.185V67.241C116.845 62.6904 120.528 59 125.086 59Z" fill="#F4F4F4"/>
</svg>
