<svg width="250" height="250" viewBox="0 0 250 250" fill="none" xmlns="http://www.w3.org/2000/svg">
<circle cx="125" cy="125" r="125" fill="black"/>
<path d="M137.936 114.687H166.651C170.076 114.687 173.167 116.824 174.145 120.018C175.562 123.237 174.66 126.868 172.085 129.134L106.157 186.821C103.247 189.345 98.9902 189.551 95.8793 187.284C92.7657 185.018 91.6326 180.898 93.1494 177.369L112.956 131.169H84.0097C80.8086 131.169 77.7345 129.031 76.5269 125.838C75.3194 122.619 76.2309 118.987 78.8153 116.721L144.735 59.039C147.645 56.5055 151.895 56.3126 155.011 58.5745C158.127 60.8371 159.26 64.9499 157.741 68.4883L137.936 114.687Z" fill="#F4F4F4"/>
</svg>
