<svg width="250" height="250" viewBox="0 0 250 250" fill="none" xmlns="http://www.w3.org/2000/svg">
<circle cx="125" cy="125" r="125" fill="black"/>
<path d="M190.855 124.696C190.855 125.159 190.624 125.391 190.624 125.623C190.752 135.023 182.202 141.178 172.802 141.178H147.59C140.766 141.178 135.229 146.946 135.229 153.771C135.229 154.647 135.332 155.496 135.486 156.321C136.053 158.947 137.16 161.265 138.293 164.021C139.839 167.575 141.41 171.103 141.41 174.837C141.41 183.052 135.847 190.469 127.657 190.804C126.756 190.83 125.829 190.855 124.928 190.855C88.5129 190.855 59 161.342 59 124.928C59 88.5129 88.5129 59 124.928 59C161.342 59 190.855 88.5129 190.855 124.928V124.696ZM83.7229 124.696C79.1723 124.696 75.4819 128.61 75.4819 132.937C75.4819 137.727 79.1723 141.178 83.7229 141.178C88.2812 141.178 91.9638 137.727 91.9638 132.937C91.9638 128.61 88.2812 124.696 83.7229 124.696ZM91.9638 108.214C96.5221 108.214 100.205 104.763 100.205 99.973C100.205 95.6465 96.5221 91.7321 91.9638 91.7321C87.4056 91.7321 83.7229 95.6465 83.7229 99.973C83.7229 104.763 87.4056 108.214 91.9638 108.214ZM124.928 75.2501C120.369 75.2501 116.687 79.1723 116.687 83.4911C116.687 88.2812 120.369 91.7321 124.928 91.7321C129.486 91.7321 133.169 88.2812 133.169 83.4911C133.169 79.1723 129.486 75.2501 124.928 75.2501ZM157.892 108.214C162.45 108.214 166.132 104.763 166.132 99.973C166.132 95.6465 162.45 91.7321 157.892 91.7321C153.333 91.7321 149.651 95.6465 149.651 99.973C149.651 104.763 153.333 108.214 157.892 108.214Z" fill="#F4F4F4"/>
</svg>
