<svg width="250" height="250" viewBox="0 0 250 250" fill="none" xmlns="http://www.w3.org/2000/svg">
<circle cx="125" cy="125" r="125" fill="black"/>
<path d="M146.012 59C152.837 59 158.373 64.5343 158.373 71.3614V96.0843C158.373 102.909 152.837 108.446 146.012 108.446H133.651V116.687H199.578C204.137 116.687 207.819 120.369 207.819 124.928C207.819 129.486 204.137 133.169 199.578 133.169H174.855V141.41H187.217C194.041 141.41 199.578 146.946 199.578 153.771V178.494C199.578 185.318 194.041 190.855 187.217 190.855H146.012C139.187 190.855 133.651 185.318 133.651 178.494V153.771C133.651 146.946 139.187 141.41 146.012 141.41H158.373V133.169H92.4458V141.41H104.807C111.632 141.41 117.169 146.946 117.169 153.771V178.494C117.169 185.318 111.632 190.855 104.807 190.855H63.6024C56.7753 190.855 51.241 185.318 51.241 178.494V153.771C51.241 146.946 56.7753 141.41 63.6024 141.41H75.9638V133.169H51.241C46.6904 133.169 43 129.486 43 124.928C43 120.369 46.6904 116.687 51.241 116.687H117.169V108.446H104.807C97.9826 108.446 92.4458 102.909 92.4458 96.0843V71.3614C92.4458 64.5343 97.9826 59 104.807 59H146.012ZM108.928 75.4819V91.9638H141.892V75.4819H108.928ZM100.687 174.373V157.892H67.7229V174.373H100.687ZM150.132 157.892V174.373H183.096V157.892H150.132Z" fill="#F4F4F4"/>
</svg>
