<svg width="250" height="250" viewBox="0 0 250 250" fill="none" xmlns="http://www.w3.org/2000/svg">
<circle cx="125" cy="125" r="125" fill="black"/>
<path d="M174.373 67C178.932 67 182.614 70.6904 182.614 75.241C182.614 79.7915 178.932 83.4819 174.373 83.4819H79.6024C77.3258 83.4819 75.4819 85.3361 75.4819 87.6024C75.4819 89.8687 77.3258 91.7229 79.6024 91.7229H174.373C183.464 91.7229 190.855 99.114 190.855 108.205V165.892C190.855 174.982 183.464 182.373 174.373 182.373H75.4819C66.3782 182.373 59 174.982 59 165.892V83.4819C59 74.3782 66.3782 67 75.4819 67H174.373ZM166.132 145.289C170.691 145.289 174.373 141.606 174.373 137.048C174.373 132.49 170.691 128.807 166.132 128.807C161.574 128.807 157.892 132.49 157.892 137.048C157.892 141.606 161.574 145.289 166.132 145.289Z" fill="#F4F4F4"/>
</svg>
