<svg width="250" height="250" viewBox="0 0 250 250" fill="none" xmlns="http://www.w3.org/2000/svg">
<circle cx="125" cy="125" r="125" fill="black"/>
<path d="M130.066 83.7049C136.891 83.7049 142.425 78.1757 142.425 71.3511C142.425 64.5266 136.891 59 130.066 59C123.241 59 117.705 64.5292 117.705 71.3537C117.705 78.1783 123.241 83.7049 130.066 83.7049ZM114.022 151.015C107.39 146.573 100.566 142.455 93.5482 138.626L75.1142 128.585L60.3387 180.322C59.0832 184.469 61.3946 189.269 66.0043 190.526C70.6141 191.782 74.9226 189.239 76.1768 184.863L85.6101 151.873L101.224 162.27V182.578C101.224 187.116 104.927 190.817 109.465 190.817C114.003 190.817 117.706 187.116 117.706 182.578L117.707 157.873C117.705 155.11 116.314 152.535 114.022 151.015ZM140.135 166.132C136.561 166.132 133.452 168.415 132.324 171.762L125.951 190.837H208.334L182.092 137.709C179.161 131.917 170.993 131.623 167.645 137.191L159.432 151.152L142.626 141.974L136.445 110.761C134.212 100.54 127.8 91.8866 118.503 87.251C118.245 87.1223 117.956 87.0901 117.698 86.9613C117.119 86.6716 116.474 86.678 115.83 86.2853C111.91 84.7144 107.712 83.7177 103.463 83.7177H84.5089C82.1268 83.7177 79.8605 84.7636 78.2818 86.5325L63.873 102.994C63.6799 103.251 63.4867 103.541 63.2936 103.831C61.008 107.204 62.521 112.296 66.2887 114.322L152.973 161.785L150.44 166.13H140.135V166.132ZM87.2902 111.562L81.2383 108.247L88.4826 99.9756H97.3365L87.2902 111.562ZM111.395 124.953L120.383 114.323L123.859 131.734L111.395 124.953Z" fill="#F4F4F4"/>
</svg>
